<?xml version="1.0" standalone="no"?>
<!DOCTYPE svg PUBLIC "-//W3C//DTD SVG 1.1//EN" "http://www.w3.org/Graphics/SVG/1.1/DTD/svg11.dtd" >
<svg xmlns="http://www.w3.org/2000/svg">
<metadata>Generated by IcoMoon</metadata>
<defs>
<font id="icomoon" horiz-adv-x="1024">
<font-face units-per-em="1024" ascent="960" descent="-64" />
<missing-glyph horiz-adv-x="1024" />
<glyph unicode="&#x20;" horiz-adv-x="512" d="" />
<glyph unicode="&#xe600;" glyph-name="location" horiz-adv-x="640" d="M320 960c-177 0-320-143-320-320s160-416 320-704c160 288 320 527 320 704s-143 320-320 320zM320 512c-71 0-128 57-128 128s57 128 128 128 128-57 128-128-57-128-128-128z" />
<glyph unicode="&#xe601;" glyph-name="youtube" d="M731.429 438.857q0 21.143-17.143 30.857l-292.571 182.857q-17.714 11.429-37.143 1.143-18.857-10.286-18.857-32v-365.714q0-21.714 18.857-32 9.143-4.571 17.714-4.571 11.429 0 19.429 5.714l292.571 182.857q17.143 9.714 17.143 30.857zM1024 438.857q0-54.857-0.571-85.714t-4.857-78-12.857-84.286q-9.143-41.714-39.429-70.286t-70.857-33.143q-126.857-14.286-383.429-14.286t-383.429 14.286q-40.571 4.571-71.143 33.143t-39.714 70.286q-8 37.143-12.286 84.286t-4.857 78-0.571 85.714 0.571 85.714 4.857 78 12.857 84.286q9.143 41.714 39.429 70.286t70.857 33.143q126.857 14.286 383.429 14.286t383.429-14.286q40.571-4.571 71.143-33.143t39.714-70.286q8-37.143 12.286-84.286t4.857-78 0.571-85.714z" />
<glyph unicode="&#xe602;" glyph-name="menu" d="M128 170.667h768v85.333h-768v-85.333zM128 384h768v85.333h-768v-85.333zM128 682.667v-85.333h768v85.333h-768z" />
<glyph unicode="&#xe603;" glyph-name="social-facebook" d="M554.667 512h128v-128h-128v-298.667h-128v298.667h-128v128h128v53.547c0 50.731 15.957 114.816 47.701 149.845 31.744 35.115 71.381 52.608 118.869 52.608h89.429v-128h-89.6c-21.248 0-38.4-17.152-38.4-38.357v-89.643z" />
<glyph unicode="&#xe604;" glyph-name="social-twitter" d="M805.973 639.488c34.475 21.163 57.301 50.048 68.48 86.784-33.536-17.792-66.944-29.995-100.309-36.736-29.995 32.256-67.968 48.64-113.493 48.64-44.501 0-82.091-15.616-112.768-45.995-30.507-30.592-45.909-67.755-45.909-111.147 0-13.184 1.664-24.96 4.992-34.944-131.243 4.48-239.872 58.923-325.461 163.712-14.507-25.643-21.76-51.755-21.76-78.763 0-55.509 23.424-99.499 70.187-131.797-26.667 2.261-50.176 9.003-70.187 20.053 0-39.637 11.648-72.747 34.987-101.888 23.424-28.843 53.504-47.232 90.24-55.083-13.312-3.413-27.349-5.035-41.771-5.035-13.312 0-22.741 1.109-28.331 3.541 9.813-32.299 28.331-58.496 55.083-78.549 26.667-20.139 57.344-30.763 91.819-31.701-56.832-44.587-121.813-66.645-195.328-66.645-18.005 0-30.763 0.256-38.485 1.621 72.405-47.019 153.003-70.357 242.176-70.357 91.264 0 171.904 23.125 242.091 69.376 70.187 45.995 121.984 102.741 155.264 169.557 33.451 66.731 50.005 136.192 50.005 208.725v19.968c32.341 24.32 58.496 51.712 78.507 81.963-29.013-12.501-59.008-20.992-90.027-25.301z" />
<glyph unicode="&#xe605;" glyph-name="close" d="M810.667 768q18.333 0 30.5-12.167t12.167-30.5q0-18-12.333-30.333l-268.667-268.333 268.667-268.333q12.333-12.333 12.333-30.333 0-18.333-12.167-30.5t-30.5-12.167q-18 0-30.333 12.333l-268.333 268.667-268.333-268.667q-12.333-12.333-30.333-12.333-18.333 0-30.5 12.167t-12.167 30.5q0 18 12.333 30.333l268.667 268.333-268.667 268.333q-12.333 12.333-12.333 30.333 0 18.333 12.167 30.5t30.5 12.167q18 0 30.333-12.333l268.333-268.667 268.333 268.667q12.333 12.333 30.333 12.333z" />
<glyph unicode="&#xe606;" glyph-name="arrow-right" d="M389.171 285.798c-13.722-13.875-13.722-36.301 0-50.125 13.67-13.875 35.891-13.875 49.613 0l196.096 200.038c13.722 13.875 13.722 36.301 0 50.125l-196.096 200.090c-13.722 13.875-35.891 13.875-49.613 0s-13.722-36.25-0.051-50.074l160.819-175.053-160.768-175.002z" />
<glyph unicode="&#xe607;" glyph-name="arrow-left" d="M634.829 285.798c13.722-13.875 13.722-36.301 0-50.125-13.722-13.875-35.891-13.875-49.613 0l-196.096 200.038c-13.722 13.875-13.722 36.301 0 50.125l196.096 200.090c13.722 13.875 35.891 13.875 49.613 0s13.722-36.25 0-50.125l-160.768-175.002 160.768-175.002z" />
<glyph unicode="&#xe608;" glyph-name="arrow-down" d="M687.002 583.629c13.875 13.722 36.301 13.722 50.125 0 13.875-13.722 13.875-35.891 0-49.613l-200.038-196.096c-13.875-13.722-36.301-13.722-50.125 0l-200.090 196.096c-13.824 13.722-13.824 35.891 0 49.613 13.875 13.722 36.25 13.722 50.125 0l175.002-160.768 175.002 160.768z" />
<glyph unicode="&#xe609;" glyph-name="arrow-up" d="M336.947 337.971c-13.875-13.722-36.25-13.722-50.125 0-13.824 13.722-13.875 35.891 0 49.664l200.090 195.994c13.875 13.722 36.301 13.722 50.125 0l200.090-196.045c13.875-13.773 13.875-35.942 0-49.664s-36.25-13.722-50.125 0l-175.053 160.819-175.002-160.768z" />
<glyph unicode="&#xe60a;" glyph-name="phone" horiz-adv-x="805" d="M804.571 242.286q0-15.429-5.714-40.286t-12-39.143q-12-28.571-69.714-60.571-53.714-29.143-106.286-29.143-15.429 0-30 2t-32.857 7.143-27.143 8.286-31.714 11.714-28 10.286q-56 20-100 47.429-73.143 45.143-151.143 123.143t-123.143 151.143q-27.429 44-47.429 100-1.714 5.143-10.286 28t-11.714 31.714-8.286 27.143-7.143 32.857-2 30q0 52.571 29.143 106.286 32 57.714 60.571 69.714 14.286 6.286 39.143 12t40.286 5.714q8 0 12-1.714 10.286-3.429 30.286-43.429 6.286-10.857 17.143-30.857t20-36.286 17.714-30.571q1.714-2.286 10-14.286t12.286-20.286 4-16.286q0-11.429-16.286-28.571t-35.429-31.429-35.429-30.286-16.286-26.286q0-5.143 2.857-12.857t4.857-11.714 8-13.714 6.571-10.857q43.429-78.286 99.429-134.286t134.286-99.429q1.143-0.571 10.857-6.571t13.714-8 11.714-4.857 12.857-2.857q10.286 0 26.286 16.286t30.286 35.429 31.429 35.429 28.571 16.286q8 0 16.286-4t20.286-12.286 14.286-10q14.286-8.571 30.571-17.714t36.286-20 30.857-17.143q40-20 43.429-30.286 1.714-4 1.714-12z" />
<glyph unicode="&#xe60e;" glyph-name="staff" horiz-adv-x="1126" d="M768 611.84c0-84.831-68.769-153.6-153.6-153.6s-153.6 68.769-153.6 153.6c0 84.831 68.769 153.6 153.6 153.6s153.6-68.769 153.6-153.6zM337.92 765.44c0-79.176-64.184-143.36-143.36-143.36s-143.36 64.184-143.36 143.36c0 79.176 64.184 143.36 143.36 143.36s143.36-64.184 143.36-143.36zM1075.2 181.76c0-113.108-91.692-204.8-204.8-204.8s-204.8 91.692-204.8 204.8c0 113.108 91.692 204.8 204.8 204.8s204.8-91.692 204.8-204.8z" />
<glyph unicode="&#xe612;" glyph-name="search" d="M1000.64 70.848l-184.896 184.896c50.688 72.576 80.64 160.704 80.64 255.936 0 247.424-200.64 448-448 448s-448-200.576-448-448c0-247.424 200.576-448 448-448 95.232 0 183.424 29.952 256 80.64l184.896-184.896c30.72-30.72 80.64-30.72 111.36 0s30.72 80.576 0 111.424zM448.32 191.616c-176.704 0-320 143.232-320 320s143.296 320 320 320c176.768 0 320-143.232 320-320 0.064-176.768-143.168-320-320-320z" />
<glyph unicode="&#xe61d;" glyph-name="envelope" d="M0 149.334c0-47.146 38.186-85.334 85.334-85.334h853.334c47.146 0 85.334 38.186 85.334 85.334l-0.002 576c0 47.146-38.186 85.334-85.334 85.334l-853.332-0.002c-47.146 0-85.334-38.186-85.334-85.334v-575.998zM314.026 436.694l-195.2 196.48c-16.192 16.214-16.192 42.454 0 58.666 16.234 16.214 42.474 16.214 58.666 0l311.468-311.872c12.586-12.374 33.302-12.374 45.674 0l311.872 311.872c16.214 16.214 42.454 16.214 58.666 0 16.214-16.214 16.214-42.454 0-58.666l-195.414-196.48 195.414-195.178c16.214-16.214 16.214-42.454 0-58.666s-42.454-16.214-58.666 0l-195.2 194.986c0 0-60.992-62.080-72.086-73.174-17.3-16.876-41.194-27.328-67.22-27.328-26.454 0-50.346 10.666-67.626 27.968-11.306 11.094-71.894 72.512-71.894 72.512l-195.008-194.986c-16.192-16.214-42.432-16.214-58.666 0-16.192 16.214-16.192 42.454 0 58.666l195.22 195.2z" />
<glyph unicode="&#xe900;" glyph-name="cel" horiz-adv-x="703" d="M611.343 960h-519.642c-50.945 0-91.701-35.662-91.701-76.418v-871.164c0-40.756 40.756-76.418 91.701-76.418h519.642c50.945 0 91.701 35.662 91.701 76.418v871.164c0 40.756-40.756 76.418-91.701 76.418v0zM45.851 771.502h616.438v-545.114h-616.438v545.114zM91.701 924.338h519.642c25.473 0 50.945-20.378 50.945-40.756v-76.418h-616.438v76.418c0 20.378 20.378 40.756 45.851 40.756v0zM611.343-28.338h-519.642c-25.473 0-50.945 20.378-50.945 40.756v178.308h616.438v-178.308c5.095-20.378-15.284-40.756-45.851-40.756v0zM351.522 144.876c-25.473 0-50.945-20.378-50.945-50.945 0-25.473 20.378-50.945 50.945-50.945 25.473 0 50.945 20.378 50.945 50.945 0 25.473-20.378 50.945-50.945 50.945v0zM351.522 68.458c-15.284 0-25.473 10.189-25.473 25.473s10.189 25.473 25.473 25.473 25.473-10.189 25.473-25.473-10.189-25.473-25.473-25.473v0z" />
<glyph unicode="&#xe901;" glyph-name="encender" horiz-adv-x="923" d="M455.769 450.96c-17.757 0-35.514 17.757-35.514 35.514v438.012c0 17.757 17.757 35.514 35.514 35.514s35.514-17.757 35.514-35.514v-438.012c0-17.757-17.757-35.514-35.514-35.514v0zM455.769-64c-254.52 0-455.769 207.168-455.769 455.769 0 100.624 29.595 195.329 94.705 278.197 59.191 76.948 142.058 136.139 236.763 159.815 17.757 5.919 41.434-5.919 47.353-23.676s-5.919-41.434-23.676-47.353c-165.734-47.353-278.197-201.249-278.197-372.902 0-213.087 171.653-384.74 384.74-384.74s384.74 171.653 384.74 384.74c0 171.653-112.462 325.549-278.197 372.902-17.757 5.919-29.595 23.676-23.676 47.353 5.919 17.757 23.676 29.595 47.353 23.676 94.705-29.595 177.572-82.867 236.763-159.815 59.191-82.867 94.705-177.572 94.705-278.197-11.838-248.601-213.087-455.769-467.607-455.769v0z" />
<glyph unicode="&#xe902;" glyph-name="lupa" d="M1008.246 6.892l-244.185 244.185c63.015 78.769 102.4 173.292 102.4 275.692 0 236.308-196.923 433.231-433.231 433.231s-433.231-196.923-433.231-433.231 196.923-433.231 433.231-433.231c102.4 0 196.923 39.385 275.692 94.523l244.185-244.185c15.754-15.754 47.262-15.754 63.015 0 15.754 23.631 15.754 47.262-7.877 63.015zM433.231 180.185c-189.046 0-346.585 157.538-346.585 346.585s157.538 346.585 346.585 346.585 346.585-157.538 346.585-346.585-157.538-346.585-346.585-346.585z" />
<glyph unicode="&#xe903;" glyph-name="mundo" horiz-adv-x="1151" d="M1039.284 659.423c-81.512 178.308-259.821 295.483-458.507 300.577-203.781 5.095-392.279-112.080-473.791-300.577-61.134-10.189-106.985-56.040-106.985-117.174v-183.403c0-61.134 45.851-112.080 106.985-122.269 81.512-183.403 264.915-300.577 468.697-300.577s382.090 117.174 468.697 300.577c61.134 10.189 106.985 56.040 106.985 122.269v183.403c-10.189 61.134-56.040 112.080-112.080 117.174v0zM580.776 919.244c173.214-5.095 331.144-101.891 407.562-254.726h-835.502c81.512 157.93 244.537 254.726 427.94 254.726v0zM570.587-18.149c-178.308 0-336.239 101.891-417.751 254.726h835.502c-81.512-157.93-239.443-254.726-417.751-254.726v0zM1100.418 358.846c0-40.756-35.662-76.418-76.418-76.418h-901.731c-40.756 0-76.418 35.662-76.418 76.418v183.403c0 40.756 35.662 76.418 76.418 76.418h901.731c40.756 0 76.418-35.662 76.418-76.418v-183.403zM300.577 353.751l-35.662 137.552-35.662-137.552h-35.662l-50.945 188.498h35.662l35.662-142.647 40.756 142.647h25.473l40.756-142.647 35.662 142.647h35.662l-56.040-188.498c0 0-35.662 0-35.662 0zM596.060 353.751l-35.662 137.552-35.662-137.552h-35.662l-50.945 188.498h35.662l35.662-142.647 40.756 142.647h25.473l40.756-142.647 35.662 142.647h35.662l-56.040-188.498c0 0-35.662 0-35.662 0zM891.542 353.751l-35.662 137.552-35.662-137.552h-35.662l-50.945 188.498h35.662l35.662-142.647 40.756 142.647h25.473l40.756-142.647 35.662 142.647h35.662l-56.040-188.498c0 0-35.662 0-35.662 0z" />
<glyph unicode="&#xe904;" glyph-name="correo" horiz-adv-x="1488" d="M20.48 823.467l641.707-512c6.827-6.827 47.787-40.96 88.747-40.96s88.747 34.133 88.747 34.133l641.707 512c6.827 6.827 6.827 13.653 6.827 20.48 0 68.267-54.613 122.88-122.88 122.88h-1228.8c-68.267 0-122.88-54.613-122.88-122.88-6.827 0 0-6.827 6.827-13.653v0zM129.707 919.040h1228.8c34.133 0 68.267-27.307 75.093-61.44l-628.053-505.173c-6.827-6.827-34.133-27.307-61.44-27.307-20.48 0-47.787 20.48-61.44 27.307l-628.053 498.347c6.827 40.96 40.96 68.267 75.093 68.267v0zM464.213 393.387l-341.333-273.067c-13.653-6.827-13.653-20.48-6.827-34.133 6.827-6.827 13.653-6.827 20.48-6.827s13.653 0 13.653 6.827l341.333 273.067c13.653 6.827 13.653 20.48 6.827 34.133-13.653 6.827-27.307 6.827-34.133 0v0zM1030.827 393.387c-13.653 6.827-27.307 6.827-34.133-6.827s-6.827-27.307 6.827-34.133l341.333-273.067c6.827-6.827 6.827-6.827 13.653-6.827s13.653 0 20.48 6.827c6.827 13.653 6.827 27.307-6.827 34.133l-341.333 279.893zM1460.907 741.547c-13.653 0-27.307-13.653-27.307-27.307v-662.187c0-40.96-34.133-75.093-75.093-75.093h-1228.8c-40.96 0-75.093 34.133-75.093 75.093v669.013c0 13.653-13.653 27.307-27.307 27.307s-27.307-13.653-27.307-27.307v-662.187c0-68.267 54.613-122.88 122.88-122.88h1228.8c68.267 0 122.88 54.613 122.88 122.88v662.187c6.827 13.653 0 20.48-13.653 20.48v0z" />
<glyph unicode="&#xe905;" glyph-name="pin" horiz-adv-x="763" d="M384 458.24c-87.040 0-153.6 66.56-153.6 143.36 0 81.92 71.68 143.36 153.6 143.36 87.040 0 153.6-66.56 153.6-143.36 5.12-81.92-66.56-143.36-153.6-143.36zM384 704c-61.44 0-107.52-46.080-107.52-102.4s51.2-102.4 107.52-102.4 107.52 46.080 107.52 102.4c5.12 56.32-46.080 102.4-107.52 102.4zM384-64l-307.2 414.72c-112.64 143.36-97.28 378.88 35.84 501.76 71.68 66.56 168.96 107.52 271.36 107.52s199.68-35.84 271.36-107.52c133.12-122.88 148.48-358.4 35.84-501.76l-307.2-414.72zM384 913.92c-92.16 0-174.080-30.72-240.64-92.16-117.76-112.64-133.12-322.56-30.72-445.44l271.36-368.64 271.36 363.52c102.4 128 87.040 337.92-30.72 450.56-66.56 61.44-153.6 92.16-240.64 92.16z" />
<glyph unicode="&#xe906;" glyph-name="calendario" horiz-adv-x="1052" d="M974.904 847.781h-133.26v77.151c0 21.041-14.027 35.068-35.068 35.068s-35.068-14.027-35.068-35.068v-77.151h-210.411v77.151c0 21.041-14.027 35.068-35.068 35.068s-35.068-14.027-35.068-35.068v-77.151h-210.411v77.151c0 21.041-14.027 35.068-35.068 35.068s-35.068-14.027-35.068-35.068v-77.151h-112.219c-49.096 0-98.192-28.055-98.192-77.151v-778.521c0-49.096 49.096-56.11 98.192-56.11h876.712c49.096 0 77.151 7.014 77.151 56.11v778.521c0 49.096-28.055 77.151-77.151 77.151zM981.918-7.89c0-14.027 7.014 14.027-7.014 14.027h-876.712c-14.027 0-28.055-21.041-28.055-14.027v778.521c0 14.027 14.027 7.014 28.055 7.014h112.219v-49.096c0-21.041 14.027-35.068 35.068-35.068s35.068 14.027 35.068 35.068v49.096h210.411v-49.096c0-21.041 14.027-35.068 35.068-35.068s35.068 14.027 35.068 35.068v49.096h210.411v-49.096c0-21.041 14.027-35.068 35.068-35.068s35.068 14.027 35.068 35.068v49.096h133.26c14.027 0 7.014 7.014 7.014-7.014v-778.521zM238.466 560.219h133.26v-98.192h-133.26v98.192zM238.466 398.904h133.26v-98.192h-133.26v98.192zM238.466 230.575h133.26v-98.192h-133.26v98.192zM469.918 230.575h133.26v-98.192h-133.26v98.192zM469.918 398.904h133.26v-98.192h-133.26v98.192zM469.918 560.219h133.26v-98.192h-133.26v98.192zM701.37 230.575h133.26v-98.192h-133.26v98.192zM701.37 398.904h133.26v-98.192h-133.26v98.192zM701.37 560.219h133.26v-98.192h-133.26v98.192z" />
<glyph unicode="&#xe907;" glyph-name="subir" horiz-adv-x="1541" d="M1427.257 484.248c4.531 18.124 4.531 36.248 4.531 54.372 0 231.080-190.301 421.381-421.381 421.381-140.46 0-271.858-67.965-348.885-185.77-40.779 18.124-81.558 31.717-126.867 31.717-144.991 0-262.796-108.743-276.389-253.735-144.991-27.186-258.265-149.522-258.265-299.044 0-172.177 140.46-303.575 312.637-303.575h412.319v-13.593 240.142h-212.956l276.389 348.885c9.062 9.062 18.124 13.593 27.186 4.531l276.389-353.416h-185.77v-226.549h321.699c172.177 0 312.637 135.929 312.637 303.575 0 90.619-40.779 172.177-113.274 231.080zM1227.894-9.628h-276.389v90.619h140.46c27.186 0 49.841 18.124 58.903 36.248s4.531 45.31-9.062 67.965l-280.92 362.478c-13.593 18.124-36.248 31.717-58.903 31.717s-45.31-9.062-58.903-31.717l-280.92-362.478c-18.124-22.655-22.655-49.841-9.062-67.965 9.062-18.124 31.717-36.248 58.903-36.248h126.867v-90.619h-321.699c-140.46 0-253.735 113.274-253.735 253.735 0 131.398 99.681 240.142 231.080 253.735l27.186 4.531v27.186c0 122.336 99.681 217.487 217.487 217.487 45.31 0 86.088-13.593 122.336-36.248l22.655-18.124 18.124 27.186c63.434 113.274 185.77 181.239 312.637 181.239 199.363 0 362.478-163.115 362.478-362.478 0-18.124 0-36.248-4.531-58.903l-9.062-18.124 13.593-9.062c63.434-49.841 104.212-122.336 104.212-203.894 0-140.46-113.274-258.265-253.735-258.265z" />
<glyph unicode="&#xe908;" glyph-name="tuerca" d="M945.231 234.198c-5.626-11.253-16.879-11.253-22.505-11.253l-61.89 28.132c-11.253 5.626-22.505 0-28.132-11.253-28.132-39.385-61.89-78.769-101.275-101.275-11.253-5.626-11.253-16.879-11.253-28.132l22.505-61.89c5.626-11.253 0-22.505-11.253-22.505l-67.516-28.132c-11.253-5.626-22.505 0-22.505 11.253l-28.132 61.89c-5.626 11.253-16.879 16.879-28.132 16.879-50.637-11.253-95.648-11.253-146.286 0-11.253 0-22.505-5.626-28.132-16.879l-28.132-61.89c-5.626-11.253-16.879-11.253-22.505-11.253l-67.516 28.132c-5.626 0-5.626 5.626-11.253 11.253 0 5.626 0 11.253 0 11.253l28.132 61.89c5.626 11.253 0 22.505-11.253 28.132-39.385 28.132-78.769 61.89-101.275 101.275-5.626 11.253-16.879 11.253-28.132 11.253l-61.89-28.132c-11.253-5.626-22.505 0-22.505 11.253l-28.132 67.516c-5.626 11.253 0 22.505 11.253 22.505l61.89 28.132c11.253 5.626 16.879 16.879 16.879 28.132-11.253 50.637-11.253 95.648 0 146.286 0 11.253-5.626 22.505-16.879 28.132l-61.89 28.132c-5.626 0-5.626 5.626-11.253 11.253 0 5.626 0 11.253 0 11.253l28.132 67.516c0 5.626 5.626 5.626 11.253 11.253 5.626 0 11.253 0 11.253 0l61.89-28.132c11.253-5.626 22.505 0 28.132 11.253 28.132 39.385 61.89 78.769 101.275 101.275 11.253 5.626 11.253 16.879 11.253 28.132l-28.132 61.89c0 5.626 0 11.253 0 11.253 0 5.626 5.626 5.626 11.253 11.253l67.516 28.132c11.253 5.626 22.505 0 22.505-11.253l28.132-61.89c5.626-11.253 16.879-16.879 33.758-11.253 11.253 5.626 16.879 16.879 11.253 33.758l-28.132 61.89c-16.879 33.758-50.637 50.637-90.022 33.758l-67.516-28.132c-16.879-5.626-28.132-22.505-33.758-33.758-5.626-16.879-5.626-33.758 0-50.637l16.879-45.011c-33.758-22.505-61.89-56.264-90.022-90.022l-45.011 16.879c-16.879 5.626-33.758 5.626-50.637 0s-28.132-22.505-33.758-33.758l-28.132-67.516c-5.626-16.879-5.626-33.758 0-50.637s22.505-28.132 33.758-33.758l45.011-16.879c-5.626-39.385-5.626-84.396 0-123.78l-45.011-16.879c-33.758-16.879-50.637-50.637-33.758-90.022l28.132-67.516c11.253-33.758 50.637-50.637 90.022-33.758l45.011 16.879c22.505-33.758 56.264-61.89 90.022-90.022l-16.879-45.011c-5.626-16.879-5.626-33.758 0-50.637s22.505-28.132 33.758-33.758l67.516-28.132c33.758-11.253 73.143 0 90.022 33.758l16.879 45.011c39.385-5.626 84.396-5.626 123.78 0l16.879-45.011c11.253-28.132 33.758-39.385 61.89-39.385 11.253 0 16.879 0 28.132 5.626l67.516 28.132c33.758 16.879 50.637 50.637 33.758 90.022l-16.879 45.011c33.758 22.505 61.89 56.264 90.022 90.022l45.011-16.879c33.758-16.879 73.143 0 90.022 33.758l28.132 67.516c5.626 16.879 5.626 33.758 0 50.637s-22.505 28.132-33.758 33.758l-61.89 28.132c-11.253 5.626-28.132 0-33.758-11.253s0-28.132 11.253-33.758l61.89-28.132c5.626 0 5.626-5.626 11.253-11.253 0-5.626 0-11.253 0-11.253l-28.132-78.769zM517.626 616.791c11.253 0 22.505 5.626 22.505 22.505 0 11.253-11.253 22.505-22.505 22.505v0c-56.264 0-112.527-22.505-151.912-61.89s-61.89-95.648-61.89-151.912 22.505-123.78 61.89-163.165c39.385-39.385 95.648-73.143 151.912-73.143v0c56.264 0 112.527 33.758 151.912 78.769 39.385 39.385 61.89 106.901 61.89 168.791 0 11.253-11.253 39.385-22.505 39.385v0c-11.253 0-22.505-16.879-22.505-33.758 0-45.011-16.879-101.275-50.637-129.407-33.758-33.758-73.143-61.89-118.154-61.89v0c-45.011 0-84.396 28.132-118.154 56.264-33.758 33.758-50.637 78.769-50.637 123.78s16.879 90.022 50.637 118.154c28.132 28.132 73.143 45.011 118.154 45.011v0zM635.78 335.473c-11.253-11.253-11.253-22.505 0-33.758s22.505-11.253 33.758 0v0c39.385 39.385 61.89 95.648 61.89 151.912s-22.505 112.527-61.89 151.912c-39.385 39.385-95.648 61.89-151.912 61.89s-112.527-22.505-151.912-61.89v0c-39.385-39.385-61.89-95.648-61.89-151.912s22.505-112.527 61.89-151.912c11.253-11.253 22.505-11.253 33.758 0v0c11.253 11.253 11.253 22.505 0 33.758-33.758 33.758-50.637 73.143-50.637 118.154s16.879 84.396 50.637 118.154v0c33.758 33.758 73.143 50.637 118.154 50.637s84.396-16.879 118.154-50.637 50.637-73.143 50.637-118.154c0-45.011-16.879-84.396-50.637-118.154v0zM365.714 909.363c11.253 5.626 22.505 0 22.505-11.253l22.505-61.89c5.626-11.253 16.879-16.879 28.132-16.879 50.637 11.253 95.648 11.253 146.286 0 11.253 0 22.505 5.626 28.132 16.879l28.132 61.89c5.626 11.253 16.879 11.253 22.505 11.253l67.516-28.132c11.253-5.626 11.253-16.879 11.253-22.505l-22.505-61.89c-5.626-11.253 0-22.505 11.253-28.132 39.385-28.132 78.769-61.89 101.275-101.275 5.626-11.253 16.879-11.253 28.132-11.253l61.89 22.505c11.253 5.626 22.505 0 22.505-11.253l28.132-67.516c0-5.626 0-11.253 0-16.879s-5.626-5.626-11.253-11.253l-61.89-22.505c-11.253-5.626-16.879-16.879-16.879-28.132 11.253-50.637 11.253-95.648 0-146.286 0-11.253 5.626-22.505 16.879-28.132l61.89-22.505c11.253-5.626 11.253-16.879 11.253-22.505l-28.132-67.516c-5.626-11.253-16.879-11.253-22.505-11.253l-61.89 22.505c-11.253 5.626-22.505 0-28.132-11.253-28.132-39.385-61.89-78.769-101.275-101.275-11.253-5.626-11.253-16.879-11.253-28.132l22.505-61.89c0-5.626 0-11.253 0-16.879s-5.626-5.626-11.253-11.253l-67.516-28.132c-5.626 0-11.253 0-16.879 0s-5.626 5.626-11.253 11.253l-22.505 61.89c-5.626 11.253-16.879 16.879-28.132 16.879-50.637-11.253-95.648-11.253-146.286 0-11.253 0-22.505-5.626-28.132-16.879l-22.505-61.89c0-5.626-5.626-5.626-11.253-11.253-5.626 0-11.253 0-16.879 0l-67.516 28.132c-11.253 5.626-11.253 16.879-11.253 22.505l22.505 61.89c5.626 11.253 0 28.132-11.253 33.758s-28.132 0-33.758-11.253l-22.505-61.89c-16.879-33.758 0-73.143 33.758-90.022l67.516-28.132c16.879-5.626 33.758-5.626 50.637 0s28.132 22.505 33.758 33.758l16.879 45.011c39.385-5.626 84.396-5.626 123.78 0l16.879-45.011c5.626-16.879 22.505-28.132 33.758-33.758 16.879-5.626 33.758-5.626 50.637 0l67.516 28.132c16.879 5.626 28.132 22.505 33.758 33.758 5.626 16.879 5.626 33.758 0 50.637l-16.879 45.011c33.758 22.505 61.89 56.264 90.022 90.022l45.011-16.879c33.758-16.879 73.143 0 90.022 33.758l28.132 67.516c16.879 33.758 0 73.143-33.758 90.022l-45.011 16.879c5.626 39.385 5.626 84.396 0 123.78l45.011 16.879c16.879 5.626 28.132 22.505 33.758 33.758 5.626 16.879 5.626 33.758 0 50.637l-28.132 67.516c-16.879 33.758-56.264 50.637-90.022 33.758l-45.011-16.879c-22.505 33.758-56.264 61.89-90.022 90.022l16.879 45.011c11.253 28.132 5.626 56.264-16.879 73.143-5.626 5.626-11.253 11.253-22.505 16.879l-67.516 28.132c-33.758 16.879-73.143 0-90.022-33.758l-16.879-45.011c-39.385 5.626-84.396 5.626-123.78 0l-16.879 45.011c-16.879 33.758-56.264 50.637-90.022 33.758l-67.516-28.132c-16.879-5.626-28.132-22.505-33.758-33.758-5.626-16.879-5.626-33.758 0-50.637l22.505-61.89c5.626-11.253 16.879-16.879 33.758-11.253 11.253 5.626 16.879 16.879 11.253 33.758l-22.505 61.89c0 5.626 0 11.253 0 16.879s5.626 5.626 11.253 11.253l90.022 28.132z" />
<glyph unicode="&#xe909;" glyph-name="eliminar" horiz-adv-x="844" d="M411.042 65.803c7.211 0 14.423 7.211 14.423 14.423v576.901c0 7.211-7.211 14.423-14.423 14.423s-14.423-7.211-14.423-14.423v-576.901c0 0 7.211-14.423 14.423-14.423v0zM237.972 65.803c7.211 0 14.423 7.211 14.423 14.423v576.901c0 7.211-7.211 14.423-14.423 14.423s-14.423-7.211-14.423-14.423v-576.901c-7.211 0 0-14.423 14.423-14.423v0zM584.113 65.803c7.211 0 14.423 7.211 14.423 14.423v576.901c0 7.211-7.211 14.423-14.423 14.423s-14.423-7.211-14.423-14.423v-576.901c0 0 7.211-14.423 14.423-14.423v0zM814.873 859.042h-245.183c0 21.634-7.211 57.69-28.845 79.324-14.423 14.423-36.056 21.634-57.69 21.634h-173.070c-21.634 0-43.268-7.211-57.69-21.634-21.634-21.634-28.845-57.69-28.845-79.324h-209.127c-7.211 0-14.423-7.211-14.423-14.423s7.211-14.423 14.423-14.423h36.056l36.056-807.662c0-28.845 21.634-86.535 86.535-86.535h497.577c64.901 0 86.535 57.69 86.535 86.535l36.056 807.662h36.056c7.211 0 14.423 7.211 14.423 14.423-7.211 7.211-14.423 14.423-28.845 14.423v0zM274.028 916.732c7.211 7.211 14.423 14.423 28.845 14.423h173.070c14.423 0 21.634-7.211 28.845-14.423 14.423-14.423 21.634-43.268 21.634-57.69h-281.239c14.423 21.634 14.423 43.268 28.845 57.69v0zM713.915 15.324c0-7.211 0-50.479-50.479-50.479h-497.577c-50.479 0-50.479 50.479-50.479 50.479l-36.056 807.662h663.437l-28.845-807.662z" />
<glyph unicode="&#xe90a;" glyph-name="cuadros" horiz-adv-x="1031" d="M687.342 644.384h-666.301c-7.014 0-21.041-7.014-21.041-21.041v-666.301c0-7.014 7.014-21.041 21.041-21.041h666.301c7.014 0 21.041 7.014 21.041 21.041v666.301c0 14.027-7.014 21.041-21.041 21.041v0zM673.315-21.918h-631.233v631.233h631.233v-631.233zM1002.959 960h-666.301c-7.014 0-21.041-7.014-21.041-21.041v-224.438c0-7.014 7.014-21.041 21.041-21.041 7.014 0 21.041 7.014 21.041 21.041v203.397h631.233v-631.233h-203.397c-7.014 0-21.041-7.014-21.041-21.041 0-7.014 7.014-21.041 21.041-21.041h224.438c7.014 0 21.041 7.014 21.041 21.041v666.301c-14.027 21.041-21.041 28.055-28.055 28.055v0z" />
<glyph unicode="&#xe90b;" glyph-name="libreta" horiz-adv-x="1038" d="M481.074 657.611l-103.087-103.087c-34.362-34.362-75.597-75.597-109.96-109.96-6.872-6.872-13.745-20.617-20.617-34.362-13.745-61.852-27.49-123.705-41.235-178.685l6.872-27.49c0-13.745 0-34.362 13.745-41.235 6.872-6.872 20.617-13.745 34.362-13.745 6.872 0 6.872 0 13.745 0l34.362 6.872c61.852 13.745 116.832 27.49 178.685 34.362 13.745 0 27.49 6.872 34.362 20.617 419.221 419.221 329.879 329.879 494.819 494.819 13.745 13.745 20.617 27.49 20.617 41.235v6.872c0 6.872 0 6.872 0 13.745 0 13.745-6.872 20.617-6.872 34.362-27.49 68.725-82.47 123.705-151.195 151.195-13.745 6.872-27.49 6.872-41.235 6.872h-6.872c-20.617 0-34.362-6.872-48.107-20.617-109.96-89.342-206.174-185.557-302.389-281.772v0zM810.953 911.893v0 0c13.745 0 27.49 0 34.362-6.872 54.98-20.617 96.215-61.852 123.705-123.705 0-6.872 6.872-13.745 6.872-27.49v-6.872c0-6.872 0-6.872-6.872-6.872-164.94-164.94-329.879-329.879-494.819-494.819l-6.872-6.872c-61.852-13.745-116.832-27.49-178.685-34.362l-34.362-6.872 6.872 27.49c13.745 61.852 27.49 123.705 41.235 178.685 0 0 0 6.872 6.872 6.872 34.362 34.362 75.597 75.597 109.96 109.96l103.087 103.087c96.215 96.215 192.43 192.43 288.644 288.644v0 0zM82.47 733.208h364.242c13.745 0 27.49 13.745 27.49 27.49s-13.745 27.49-27.49 27.49h-364.242c-48.107 0-82.47-34.362-82.47-82.47v-687.248c0-48.107 34.362-82.47 82.47-82.47h687.248c48.107 0 82.47 34.362 82.47 82.47v350.497c0 13.745-13.745 27.49-27.49 27.49s-27.49-13.745-27.49-27.49v-350.497c0-13.745-13.745-27.49-27.49-27.49h-687.248c-13.745 0-27.49 13.745-27.49 27.49v687.248c0 13.745 13.745 27.49 27.49 27.49v0z" />
<glyph unicode="&#xe90c;" glyph-name="carrito" horiz-adv-x="923" d="M249.081 341.91h521.225c59.964 0 106.090 46.126 106.090 106.090v235.243l-659.604 92.252v78.414c0 0 0 0 0 4.613v0 0 0 0 0 0 0 0 0 0 0 0 0 0 0 0 0 0 0 0c0 0 0 0-4.613 0l-142.991 59.964c-13.838 4.613-27.676 0-32.288-13.838s0-27.676 13.838-32.288l124.541-55.351v-571.964c0-55.351 41.514-101.477 92.252-106.090-9.225-13.838-13.838-32.288-13.838-55.351 0-59.964 46.126-106.090 106.090-106.090s106.090 46.126 106.090 106.090c0 18.45-4.613 36.901-13.838 55.351h235.243c-9.225-13.838-13.838-32.288-13.838-55.351 0-59.964 46.126-106.090 106.090-106.090s106.090 46.126 106.090 106.090-46.126 106.090-106.090 106.090h-493.55c-32.288 0-55.351 23.063-55.351 55.351v69.189c0 27.676 0 27.676 18.45 27.676v0zM410.523 83.604c0-27.676-23.063-55.351-55.351-55.351s-55.351 23.063-55.351 55.351 23.063 55.351 55.351 55.351 55.351-27.676 55.351-55.351v0zM834.883 83.604c0-27.676-23.063-55.351-55.351-55.351-27.676 0-55.351 23.063-55.351 55.351s23.063 55.351 55.351 55.351c32.288-4.613 55.351-27.676 55.351-55.351v0zM770.306 397.261h-521.225c-23.063 0-23.063 18.45-23.063 50.739v281.369l595.027-83.027v-193.73c4.613-32.288-23.063-55.351-50.739-55.351v0z" />
<glyph unicode="&#xe90d;" glyph-name="agenda" horiz-adv-x="806" d="M806.209 455.642c0 141.373 0 278.925 0 420.299 0 22.925-7.642 42.030-22.925 57.313s-30.567 22.925-49.672 30.567c-156.657 0-313.313 0-473.791 0-84.060-87.881-168.119-171.94-252.179-259.821-3.821-3.821-7.642-7.642-7.642-11.463 0-225.433 0-450.866 0-676.299 0-3.821 0-7.642 0-11.463 15.284-42.030 49.672-68.776 87.881-68.776 210.149 0 420.299 0 630.448 0 45.851 0 87.881 49.672 87.881 87.881 0 145.194 0 286.567 0 431.761zM267.463 910.328c0-3.821 0-3.821 0-7.642 0-61.134 0-126.090 0-187.224 0-15.284-7.642-22.925-22.925-22.925-61.134 0-126.090 0-187.224 0-3.821 0-7.642 0-11.463 0 76.418 72.597 149.015 145.194 221.612 217.791zM771.821 31.522c0-34.388-22.925-57.313-57.313-57.313-206.328 0-412.657 0-622.806 0-34.388 0-57.313 22.925-57.313 57.313 0 202.507 0 408.836 0 611.343 3.821 3.821 3.821 7.642 3.821 11.463 19.104 0 34.388 0 49.672 0 53.493 0 106.985 0 160.478 0 30.567 0 57.313 26.746 57.313 57.313 0 64.955 0 133.731 0 198.687 0 3.821 0 7.642 0 11.463 3.821 0 7.642 0 11.463 0 133.731 0 267.463 0 401.194 0 34.388 0 57.313-22.925 57.313-57.313-3.821-275.104-3.821-554.030-3.821-832.955zM645.731 287.522c-160.478 0-320.955 0-481.433 0 0-11.463 0-22.925 0-34.388 160.478 0 320.955 0 481.433 0 0 11.463 0 22.925 0 34.388zM645.731 581.731c-160.478 0-320.955 0-481.433 0 0-11.463 0-22.925 0-34.388 160.478 0 320.955 0 481.433 0 0 11.463 0 22.925 0 34.388zM645.731 386.866c-160.478 0-320.955 0-481.433 0 0-11.463 0-22.925 0-34.388 160.478 0 320.955 0 481.433 0 0 7.642 0 22.925 0 34.388zM164.299 153.791c160.478 0 320.955 0 481.433 0 0 11.463 0 22.925 0 34.388-160.478 0-320.955 0-481.433 0 0-11.463 0-22.925 0-34.388zM164.299 448c160.478 0 320.955 0 481.433 0 0 7.642 0 11.463 0 19.104s0 11.463 0 19.104c-160.478 0-320.955 0-481.433 0 0-15.284 0-26.746 0-38.209z" />
<glyph unicode="&#xe90e;" glyph-name="flecha-left" horiz-adv-x="572" d="M17.162 405.095l446.212-446.212c11.441-11.441 28.603-17.162 45.765-17.162s34.324 5.721 45.765 17.162c22.883 22.883 22.883 68.648 0 91.531l-406.168 400.447 406.168 406.168c11.441 11.441 17.162 22.883 17.162 45.765 0 17.162-5.721 34.324-17.162 45.765-11.441 5.721-28.603 11.441-45.765 11.441s-28.603-5.721-45.765-17.162l-446.212-446.212c-11.441-17.162-17.162-28.603-17.162-45.765s5.721-34.324 17.162-45.765zM537.743-23.955v0 0 0z" />
<glyph unicode="&#xe90f;" glyph-name="flecha-right" horiz-adv-x="572" d="M554.905 490.905l-446.212 451.933c-11.441 11.441-28.603 17.162-45.765 17.162s-34.324-5.721-45.765-17.162c-22.883-22.883-22.883-68.648 0-91.531l406.168-400.447-406.168-406.168c-11.441-11.441-17.162-22.883-17.162-45.765 0-17.162 5.721-34.324 17.162-45.765s28.603-17.162 45.765-17.162c17.162 0 34.324 5.721 45.765 17.162l446.212 446.212c11.441 17.162 17.162 34.324 17.162 51.486 0 11.441-5.721 28.603-17.162 40.045zM40.045 919.955v0 0 0z" />
<glyph unicode="&#xe910;" glyph-name="reloj" d="M512 960c-285.642 0-512-226.358-512-512s226.358-512 512-512c280.253 0 512 226.358 512 512s-231.747 512-512 512zM512-20.884c-258.695 0-468.884 210.189-468.884 468.884s210.189 468.884 468.884 468.884c258.695 0 468.884-210.189 468.884-468.884s-215.579-468.884-468.884-468.884zM533.558 846.821h-43.116v-420.379h274.863v43.116h-231.747z" />
<glyph unicode="&#xe911;" glyph-name="terminos" horiz-adv-x="1549" d="M1548.642 896.79c-372.938 0-745.877 0-1118.815 0 0-31.605 0-56.889 0-82.173 372.938 0 745.877 0 1125.136 0-6.321 25.284-6.321 56.889-6.321 82.173zM429.827-0.79c372.938 0 745.877 0 1118.815 0 0 31.605 0 56.889 0 82.173-372.938 0-745.877 0-1118.815 0 0-25.284 0-56.889 0-82.173zM429.827 485.926c0-25.284 0-56.889 0-82.173 372.938 0 745.877 0 1125.136 0 0 12.642 0 25.284 0 37.926s0 25.284 0 44.247c-379.259 0-752.198 0-1125.136 0zM214.914 852.543c0-59.347-48.11-107.457-107.457-107.457s-107.457 48.11-107.457 107.457c0 59.347 48.11 107.457 107.457 107.457s107.457-48.11 107.457-107.457zM214.914 448c0-59.347-48.11-107.457-107.457-107.457s-107.457 48.11-107.457 107.457c0 59.347 48.11 107.457 107.457 107.457s107.457-48.11 107.457-107.457zM214.914 37.136c0-59.347-48.11-107.457-107.457-107.457s-107.457 48.11-107.457 107.457c0 59.347 48.11 107.457 107.457 107.457s107.457-48.11 107.457-107.457z" />
<glyph unicode="&#xe912;" glyph-name="logout" horiz-adv-x="1348" d="M1348.193 106.758v682.621c-0.187 94.232-76.527 170.571-170.74 170.758h-551.614c-94.232-0.187-170.571-76.527-170.758-170.74v-110.557c0-18.679 15.142-33.822 33.822-33.822s33.822 15.142 33.822 33.822v0 110.539c0.125 57.050 46.34 103.265 103.378 103.39h551.333c57.050-0.125 103.265-46.34 103.39-103.378v-682.495c-0.125-57.050-46.34-103.265-103.378-103.39h-551.608c-57.050 0.125-103.265 46.34-103.39 103.378v110.551c0 18.679-15.142 33.822-33.822 33.822s-33.822-15.142-33.822-33.822v0-110.539c0.187-94.232 76.527-170.571 170.74-170.758h551.889c94.221 0.094 170.586 76.41 170.758 170.604v0.017zM288.447 702.35c-6.124 6.118-14.582 9.902-23.923 9.902s-17.798-3.784-23.923-9.902v0l-230.702-230.702c-6.116-6.074-9.901-14.488-9.901-23.785s3.786-17.711 9.899-23.783l230.704-230.704c6.087-6.087 14.496-9.852 23.785-9.852 18.577 0 33.637 15.060 33.637 33.637 0 9.289-3.765 17.698-9.852 23.785v0l-173.233 173.233h632.163c18.679 0 33.822 15.142 33.822 33.822s-15.142 33.822-33.822 33.822h-631.888l173.233 173.233c6.114 6.023 9.902 14.393 9.902 23.648s-3.788 17.624-9.898 23.644l-0.004 0.004z" />
<glyph unicode="&#xe913;" glyph-name="facebook" horiz-adv-x="585" d="M562.225 448h-172.13v-512h-233.57v512h-156.526v176.030h156.526v104.35c0 146.286 48.762 231.619 255.025 231.619h173.592v-176.518h-109.227c-80.457 0-85.821-24.381-85.821-70.705v-88.259h195.048z" />
<glyph unicode="&#xe914;" glyph-name="instagram" horiz-adv-x="1122" d="M284.609-60.547c-45.687 0.462-89.376 8.373-130.119 22.57l2.859-0.867c-30.674 10.388-57.019 26.399-79.045 46.974l0.124-0.115c-21.296 19.524-38.086 43.601-48.871 70.719l-0.455 1.296c-14.772 33.983-23.902 73.474-25.145 114.947l-0.011 0.475c-3.946 65.603-3.946 85.333-3.946 252.547s0 186.451 3.946 252.054c0.622 42.105 9.263 82.024 24.459 118.53l-0.783-2.121c11.29 28.394 28.072 52.462 49.188 71.891l0.137 0.125c22.316 20.455 49.185 36.339 78.879 45.941l1.522 0.425c37.883 13.322 81.571 21.232 127.041 21.701l0.219 0.002c72.015 3.453 93.719 3.453 276.224 3.453s204.208 0 277.703-3.453c45.539-0.583 89.043-8.483 129.652-22.574l-2.885 0.871c30.669-10.403 57.012-26.412 79.047-46.976l-0.126 0.117c21.268-19.543 38.052-43.615 48.867-70.714l0.458-1.301c14.398-34.231 23.038-73.978 23.673-115.666l0.003-0.249c3.453-66.096 3.946-85.827 3.946-252.547s0-186.451-3.946-252.547c-0.663-41.94-9.301-81.683-24.457-118.028l0.781 2.113c-11.273-28.401-28.058-52.472-49.187-71.89l-0.139-0.126c-21.902-20.461-48.247-36.472-77.404-46.41l-1.517-0.449c-37.729-13.286-81.241-21.193-126.53-21.701l-0.236-0.002c-72.015-2.96-93.719-3.453-276.717-3.453s-204.208 0-276.224 3.453zM843.961 781.441c3.409-42.669 38.875-76.004 82.127-76.004s78.718 33.335 82.109 75.715l0.019 0.29c-3.409 42.669-38.875 76.004-82.127 76.004s-78.718-33.335-82.109-75.715l-0.019-0.29zM209.634 448c0-177.079 157.349-320.617 351.198-320.617s351.198 143.538 351.198 320.617-157.349 320.617-351.198 320.617-351.198-143.538-351.198-320.617zM332.948 448c5.842 116.278 101.542 208.345 218.746 208.345 3.214 0 6.412-0.069 9.592-0.206l-0.453 0.016c2.874 0.135 6.243 0.212 9.63 0.212 117.211 0 212.916-92.079 218.726-207.847l0.021-0.519c-5.842-116.278-101.542-208.345-218.746-208.345-3.214 0-6.412 0.069-9.592 0.206l0.453-0.016c-2.727-0.122-5.924-0.191-9.138-0.191-117.204 0-212.904 92.067-218.725 207.825l-0.021 0.52z" />
<glyph unicode="&#xe915;" glyph-name="phone-call" d="M823.195-64c-54.68 1.905-106.138 13.497-153.434 33.104l2.917-1.071c-148.074 63.095-274.077 151.117-378.501 259.997l-0.376 0.395c-109.26 104.81-197.278 230.811-257.584 371.51l-2.808 7.367c-44.087 114.007-44.087 206.66-1.722 249.37l18.599 19.288c38.921 40.299 82.664 86.108 140.529 84.042 39.954-1.722 78.531-26.521 119.174-75.775 117.107-145.695 64.409-197.36 3.1-257.636l-11.711-11.022c-9.989-9.989-28.932-56.143 146.729-231.804 43.571-45.487 91.112-86.469 142.296-122.637l3.055-2.048c24.455-15.844 68.887-40.299 86.453-22.044l11.022 11.022c59.931 60.965 111.941 113.663 257.292-3.444 50.632-39.265 74.053-76.809 75.775-118.141 2.411-57.865-43.743-103.33-84.386-140.184l-19.288-18.599c-23.293-19.932-53.779-32.063-87.097-32.063-3.531 0-7.030 0.136-10.492 0.404l0.459-0.029zM186.683 925.557c-41.332 0-78.531-39.265-111.252-73.709l-19.288-19.977c-31.688-31.688-28.588-112.974 7.922-211.482 61.125-143.762 146.478-266.105 252.096-367.498l0.374-0.357c101.739-106.007 224.084-191.363 360.706-249.753l7.149-2.716c96.786-36.51 179.794-39.61 211.138-8.266l19.977 19.288c34.443 34.443 75.431 71.642 73.709 114.007-7.284 39.354-30.449 72.232-62.457 92.316l-0.575 0.336c-121.24 97.475-154.995 63.031-211.482 6.2l-11.022-11.022c-26.866-26.866-68.887-21.010-129.851 17.566-56.314 39.566-105.659 82.023-150.525 128.809l-0.337 0.353c-145.006 146.040-191.505 234.903-147.417 280.713l12.4 9.644c56.487 57.52 90.93 91.275-5.855 212.515-20.603 32.406-53.395 55.494-91.774 62.89l-0.878 0.141z" />
<glyph unicode="&#xe916;" glyph-name="youtube2" horiz-adv-x="1664" d="M1084.8 427.52l-455.040-188.8c-2.256-1.052-4.899-1.665-7.684-1.665-10.25 0-18.56 8.31-18.56 18.56 0 0.135 0.001 0.271 0.004 0.405v-0.020 384c1.374 9.012 9.070 15.836 18.359 15.836 2.862 0 5.572-0.648 7.993-1.804l-0.112 0.048 458.24-198.4c5.898-2.234 10.015-7.836 10.015-14.4s-4.117-12.166-9.909-14.365l-0.106-0.035zM1318.4 960h-972.8c-190.72 0-345.6-134.4-345.6-300.8v-422.4c0-166.4 154.88-300.8 345.6-300.8h972.8c192 0 345.6 134.4 345.6 300.8v422.4c0 166.4-154.88 300.8-345.6 300.8z" />
</font>
</defs>
</svg>
